<svg width="100" height="100" viewBox="0 0 100 100" fill="none" xmlns="http://www.w3.org/2000/svg">
<path d="M52.6847 33.2278V84M52.6847 33.2278L69.6779 50.1519M52.6847 33.2278L35.6914 50.1519M83.839 61.4346C92.4432 61.4346 98 54.4901 98 45.9208C97.9997 42.5282 96.8828 39.2293 94.8203 36.5292C92.7578 33.8291 89.8634 31.8768 86.5805 30.9713C86.0754 24.6442 83.4425 18.6718 79.1074 14.0195C74.7723 9.36722 68.9884 6.30704 62.6909 5.3337C56.3933 4.36036 49.9502 5.53076 44.4032 8.65568C38.8562 11.7806 34.5296 16.6774 32.1228 22.5543C27.0556 21.1554 21.6379 21.8185 17.0616 24.3979C12.4852 26.9772 9.12517 31.2614 7.72052 36.308C6.31587 41.3546 6.98171 46.7502 9.57156 51.3079C12.1614 55.8656 16.4631 59.212 21.5304 60.6109" stroke="#9F9F9E" stroke-width="2" stroke-linecap="round" stroke-linejoin="round"/>
</svg>
