<svg width="25" height="24" viewBox="0 0 25 24" fill="none" xmlns="http://www.w3.org/2000/svg">
<path d="M22.8549 16.4026L12.2441 22.1509L1.63324 16.4026C1.42315 16.3054 1.1811 16.2863 0.956347 16.349C0.731595 16.4118 0.541037 16.5518 0.423461 16.7405C0.305884 16.9292 0.270126 17.1524 0.323463 17.3647C0.3768 17.577 0.515225 17.7625 0.710561 17.8833L11.7827 23.8834C11.9238 23.9598 12.0842 24.0001 12.2475 24.0001C12.4109 24.0001 12.5713 23.9598 12.7123 23.8834L23.7845 17.8833C23.8909 17.8274 23.9842 17.7525 24.0591 17.6628C24.134 17.5731 24.189 17.4705 24.2209 17.3609C24.2528 17.2514 24.2609 17.137 24.2448 17.0245C24.2287 16.912 24.1888 16.8035 24.1272 16.7055C24.0656 16.6074 23.9837 16.5217 23.8862 16.4533C23.7887 16.3849 23.6776 16.3352 23.5592 16.307C23.4408 16.2788 23.3176 16.2727 23.1967 16.2892C23.0758 16.3056 22.9596 16.3441 22.8549 16.4026Z" fill="#9F9F9E"/>
<path d="M22.8549 11.2597L12.2441 17.0079L1.63324 11.2597C1.42315 11.1625 1.1811 11.1433 0.956347 11.2061C0.731595 11.2689 0.541037 11.4088 0.423461 11.5975C0.305884 11.7862 0.270126 12.0094 0.323463 12.2218C0.3768 12.4341 0.515225 12.6195 0.710561 12.7404L11.7827 18.7404C11.9238 18.8169 12.0842 18.8571 12.2475 18.8571C12.4109 18.8571 12.5713 18.8169 12.7123 18.7404L23.7845 12.7404C23.8909 12.6845 23.9842 12.6095 24.0591 12.5199C24.134 12.4302 24.189 12.3276 24.2209 12.218C24.2528 12.1084 24.2609 11.9941 24.2448 11.8815C24.2287 11.769 24.1888 11.6606 24.1272 11.5625C24.0656 11.4645 23.9837 11.3788 23.8862 11.3104C23.7887 11.2419 23.6776 11.1922 23.5592 11.164C23.4408 11.1359 23.3176 11.1298 23.1967 11.1462C23.0758 11.1626 22.9596 11.2012 22.8549 11.2597Z" fill="#9F9F9E"/>
<path d="M0.710653 7.59747L11.7828 13.5975C11.9239 13.6739 12.0843 13.7142 12.2476 13.7142C12.4109 13.7142 12.5713 13.6739 12.7124 13.5975L23.7846 7.59747C23.9239 7.52198 24.0394 7.4139 24.1198 7.284C24.2001 7.1541 24.2423 7.00691 24.2423 6.85711C24.2423 6.7073 24.2001 6.56012 24.1198 6.43022C24.0394 6.30031 23.9239 6.19223 23.7846 6.11674L12.7124 0.116701C12.5713 0.0402717 12.4109 0 12.2476 0C12.0843 0 11.9239 0.0402717 11.7828 0.116701L0.710653 6.11674C0.571369 6.19223 0.455813 6.30031 0.375502 6.43022C0.295191 6.56012 0.25293 6.7073 0.25293 6.85711C0.25293 7.00691 0.295191 7.1541 0.375502 7.284C0.455813 7.4139 0.571369 7.52198 0.710653 7.59747Z" fill="#9F9F9E"/>
</svg>
