<svg width="35" height="36" viewBox="0 0 35 36" fill="none" xmlns="http://www.w3.org/2000/svg">
<path d="M17.5557 35.1694C15.1861 35.1694 12.9592 34.7137 10.8751 33.8023C8.791 32.8908 6.97811 31.6549 5.43644 30.0946C3.89478 28.5343 2.67458 26.6981 1.77584 24.5861C0.877108 22.474 0.42717 20.2186 0.426028 17.8197C0.424886 15.4208 0.874824 13.1653 1.77584 11.0533C2.67686 8.94126 3.89706 7.10508 5.43644 5.54477C6.97583 3.98445 8.78871 2.74857 10.8751 1.83713C12.9615 0.92569 15.1883 0.469971 17.5557 0.469971C19.923 0.469971 22.1498 0.92569 24.2362 1.83713C26.3226 2.74857 28.1355 3.98445 29.6749 5.54477C31.2143 7.10508 32.435 8.94126 33.3372 11.0533C34.2393 13.1653 34.6887 15.4208 34.6853 17.8197C34.6819 20.2186 34.2319 22.474 33.3355 24.5861C32.439 26.6981 31.2188 28.5343 29.6749 30.0946C28.1309 31.6549 26.318 32.8914 24.2362 33.804C22.1544 34.7166 19.9275 35.1717 17.5557 35.1694ZM17.5557 31.6995C21.3813 31.6995 24.6216 30.3549 27.2767 27.6657C29.9318 24.9765 31.2594 21.6945 31.2594 17.8197C31.2594 17.6173 31.2525 17.4074 31.2388 17.1899C31.2251 16.9725 31.2177 16.792 31.2165 16.6486C31.0738 17.4872 30.6884 18.1811 30.0603 18.7306C29.4322 19.28 28.6899 19.5547 27.8334 19.5547H24.4075C23.4654 19.5547 22.6591 19.2152 21.9888 18.5362C21.3185 17.8573 20.9827 17.0401 20.9816 16.0847V14.3498H14.1297V10.8798C14.1297 9.92557 14.4655 9.10898 15.137 8.43002C15.8084 7.75107 16.6147 7.41102 17.5557 7.40986H19.2686C19.2686 6.74479 19.4473 6.15952 19.8048 5.65407C20.1622 5.14861 20.5973 4.73627 21.1101 4.41703C20.5391 4.27245 19.9612 4.15679 19.3765 4.07004C18.7918 3.98329 18.1849 3.93992 17.5557 3.93992C13.73 3.93992 10.4897 5.28452 7.83459 7.97373C5.1795 10.6629 3.85195 13.9449 3.85195 17.8197H12.4168C14.301 17.8197 15.9141 18.4992 17.2559 19.8583C18.5977 21.2174 19.2686 22.8511 19.2686 24.7596V26.4946H14.1297V31.2657C14.7007 31.4103 15.2649 31.519 15.8221 31.5919C16.3794 31.6648 16.9573 31.7006 17.5557 31.6995Z" fill="black"/>
</svg>
