<svg width="22" height="22" viewBox="0 0 22 22" fill="none" xmlns="http://www.w3.org/2000/svg">
<path d="M3.14286 18.5V21.5C3.14286 21.6354 3.10398 21.7526 3.02623 21.8516C2.94847 21.9505 2.8564 22 2.75 22H0.392857C0.286458 22 0.194382 21.9505 0.116629 21.8516C0.0388765 21.7526 0 21.6354 0 21.5V18.5C0 18.3646 0.0388765 18.2474 0.116629 18.1484C0.194382 18.0495 0.286458 18 0.392857 18H2.75C2.8564 18 2.94847 18.0495 3.02623 18.1484C3.10398 18.2474 3.14286 18.3646 3.14286 18.5ZM3.14286 12.5V15.5C3.14286 15.6354 3.10398 15.7526 3.02623 15.8516C2.94847 15.9505 2.8564 16 2.75 16H0.392857C0.286458 16 0.194382 15.9505 0.116629 15.8516C0.0388765 15.7526 0 15.6354 0 15.5V12.5C0 12.3646 0.0388765 12.2474 0.116629 12.1484C0.194382 12.0495 0.286458 12 0.392857 12H2.75C2.8564 12 2.94847 12.0495 3.02623 12.1484C3.10398 12.2474 3.14286 12.3646 3.14286 12.5ZM3.14286 6.5V9.5C3.14286 9.63542 3.10398 9.7526 3.02623 9.85156C2.94847 9.95052 2.8564 10 2.75 10H0.392857C0.286458 10 0.194382 9.95052 0.116629 9.85156C0.0388765 9.7526 0 9.63542 0 9.5V6.5C0 6.36458 0.0388765 6.2474 0.116629 6.14844C0.194382 6.04948 0.286458 6 0.392857 6H2.75C2.8564 6 2.94847 6.04948 3.02623 6.14844C3.10398 6.2474 3.14286 6.36458 3.14286 6.5ZM22 18.5V21.5C22 21.6354 21.9611 21.7526 21.8834 21.8516C21.8056 21.9505 21.7135 22 21.6071 22H5.10714C5.00074 22 4.90867 21.9505 4.83091 21.8516C4.75316 21.7526 4.71429 21.6354 4.71429 21.5V18.5C4.71429 18.3646 4.75316 18.2474 4.83091 18.1484C4.90867 18.0495 5.00074 18 5.10714 18H21.6071C21.7135 18 21.8056 18.0495 21.8834 18.1484C21.9611 18.2474 22 18.3646 22 18.5ZM3.14286 0.5V3.5C3.14286 3.63542 3.10398 3.7526 3.02623 3.85156C2.94847 3.95052 2.8564 4 2.75 4H0.392857C0.286458 4 0.194382 3.95052 0.116629 3.85156C0.0388765 3.7526 0 3.63542 0 3.5V0.5C0 0.364583 0.0388765 0.247396 0.116629 0.148438C0.194382 0.0494792 0.286458 0 0.392857 0H2.75C2.8564 0 2.94847 0.0494792 3.02623 0.148438C3.10398 0.247396 3.14286 0.364583 3.14286 0.5ZM22 12.5V15.5C22 15.6354 21.9611 15.7526 21.8834 15.8516C21.8056 15.9505 21.7135 16 21.6071 16H5.10714C5.00074 16 4.90867 15.9505 4.83091 15.8516C4.75316 15.7526 4.71429 15.6354 4.71429 15.5V12.5C4.71429 12.3646 4.75316 12.2474 4.83091 12.1484C4.90867 12.0495 5.00074 12 5.10714 12H21.6071C21.7135 12 21.8056 12.0495 21.8834 12.1484C21.9611 12.2474 22 12.3646 22 12.5ZM22 6.5V9.5C22 9.63542 21.9611 9.7526 21.8834 9.85156C21.8056 9.95052 21.7135 10 21.6071 10H5.10714C5.00074 10 4.90867 9.95052 4.83091 9.85156C4.75316 9.7526 4.71429 9.63542 4.71429 9.5V6.5C4.71429 6.36458 4.75316 6.2474 4.83091 6.14844C4.90867 6.04948 5.00074 6 5.10714 6H21.6071C21.7135 6 21.8056 6.04948 21.8834 6.14844C21.9611 6.2474 22 6.36458 22 6.5ZM22 0.5V3.5C22 3.63542 21.9611 3.7526 21.8834 3.85156C21.8056 3.95052 21.7135 4 21.6071 4H5.10714C5.00074 4 4.90867 3.95052 4.83091 3.85156C4.75316 3.7526 4.71429 3.63542 4.71429 3.5V0.5C4.71429 0.364583 4.75316 0.247396 4.83091 0.148438C4.90867 0.0494792 5.00074 0 5.10714 0H21.6071C21.7135 0 21.8056 0.0494792 21.8834 0.148438C21.9611 0.247396 22 0.364583 22 0.5Z" fill="#9F9F9E"/>
</svg>
