<svg width="42" height="42" viewBox="0 0 42 42" fill="none" xmlns="http://www.w3.org/2000/svg">
<g clip-path="url(#clip0_1_291)">
<path d="M37.7693 9.55117L21.9374 0.77729C21.0775 0.296079 20.0338 0.296079 19.174 0.77729L3.34204 9.55482C2.42117 10.0651 1.84759 11.0427 1.84521 12.1059V29.5334C1.84759 30.5966 2.42117 31.5742 3.34204 32.0845L19.174 40.862C20.0338 41.3432 21.0775 41.3432 21.9374 40.862L37.7693 32.0845C38.6901 31.5742 39.2637 30.5966 39.2661 29.5334V12.1077C39.2657 11.0426 38.6918 10.0624 37.7693 9.55117ZM20.5557 3.32837L35.0113 11.346L29.6536 14.3144L15.198 6.29673L20.5557 3.32837ZM20.5557 19.3637L6.10004 11.346L12.2007 7.96222L26.6564 15.9799L20.5557 19.3637ZM36.3876 29.5407L21.9949 37.5201V21.8838L27.752 18.6932V25.1948C27.752 26.3169 28.9514 27.0183 29.9109 26.4572C30.3562 26.1968 30.6305 25.7156 30.6305 25.1948V17.0969L36.3876 13.9062V29.5334V29.5407Z" fill="black"/>
</g>
<defs>
<clipPath id="clip0_1_291">
<rect width="41.1111" height="41.6393" fill="white"/>
</clipPath>
</defs>
</svg>
