<svg width="24" height="24" viewBox="0 0 24 24" fill="none" xmlns="http://www.w3.org/2000/svg">
<g clip-path="url(#clip0_1_244)">
<path d="M13.2936 2.19017e-06C13.6464 2.19017e-06 13.962 0.219602 14.0808 0.548402L14.928 2.8968C15.2316 2.9724 15.492 3.048 15.7128 3.1272C15.954 3.2136 16.2648 3.3444 16.6488 3.5232L18.6216 2.4792C18.7826 2.39389 18.9669 2.3631 19.1469 2.39144C19.327 2.41978 19.4929 2.50574 19.62 2.6364L21.3552 4.4304C21.5856 4.6692 21.6504 5.0184 21.5208 5.3232L20.5956 7.4916C20.7492 7.7736 20.8716 8.0148 20.9652 8.2164C21.066 8.436 21.1908 8.7384 21.3396 9.1284L23.496 10.0524C23.82 10.1904 24.0204 10.5144 23.9988 10.8612L23.8404 13.3512C23.8295 13.513 23.7714 13.668 23.6733 13.7971C23.5752 13.9261 23.4413 14.0235 23.2884 14.0772L21.246 14.8032C21.1872 15.0852 21.126 15.3264 21.0612 15.5304C20.9566 15.8455 20.8373 16.1554 20.7036 16.4592L21.7296 18.7272C21.802 18.8866 21.8215 19.0649 21.7852 19.2361C21.7489 19.4074 21.6588 19.5625 21.528 19.6788L19.5768 21.4212C19.4483 21.5355 19.2879 21.6077 19.1172 21.6283C18.9465 21.6489 18.7735 21.6168 18.6216 21.5364L16.6104 20.4708C16.2957 20.6374 15.9711 20.7845 15.6384 20.9112L14.76 21.24L13.98 23.4C13.9222 23.5582 13.8179 23.6952 13.6808 23.7931C13.5438 23.8909 13.3803 23.9451 13.212 23.9484L10.932 24C10.7591 24.0045 10.5891 23.9554 10.4453 23.8593C10.3016 23.7633 10.1911 23.625 10.1292 23.4636L9.20995 21.0312C8.89633 20.924 8.5858 20.808 8.27875 20.6832C8.02761 20.5745 7.78027 20.4572 7.53715 20.3316L5.25715 21.306C5.10692 21.3701 4.9413 21.3891 4.78044 21.3608C4.61959 21.3325 4.47044 21.258 4.35115 21.1464L2.66395 19.5636C2.53834 19.4463 2.45279 19.2924 2.41941 19.1238C2.38603 18.9552 2.40651 18.7803 2.47795 18.624L3.45835 16.488C3.32796 16.235 3.20708 15.9772 3.09595 15.7152C2.96623 15.3945 2.84618 15.0699 2.73595 14.742L0.587953 14.088C0.413354 14.0352 0.261066 13.9263 0.15474 13.7781C0.0484149 13.6299 -0.00599784 13.4507 -4.73183e-05 13.2684L0.0839527 10.9632C0.0899318 10.8128 0.136917 10.6669 0.219826 10.5413C0.302736 10.4156 0.418415 10.315 0.554353 10.2504L2.80795 9.168C2.91235 8.7852 3.00355 8.4876 3.08395 8.2704C3.19716 7.9803 3.32288 7.69523 3.46075 7.416L2.48395 5.352C2.40982 5.19526 2.38731 5.01905 2.41966 4.84871C2.452 4.67836 2.53753 4.52267 2.66395 4.404L4.34875 2.8128C4.46686 2.70141 4.61464 2.62652 4.77431 2.59714C4.93397 2.56776 5.09873 2.58514 5.24875 2.6472L7.52635 3.588C7.77835 3.42 8.00635 3.2844 8.21275 3.1752C8.45875 3.0444 8.78755 2.9076 9.20155 2.76L9.99355 0.550802C10.0521 0.389124 10.1591 0.24946 10.3 0.15088C10.4409 0.0522992 10.6088 -0.000391501 10.7808 2.19017e-06H13.2936ZM12.0288 8.4228C10.0284 8.4228 8.40715 10.0248 8.40715 12.0024C8.40715 13.98 10.0284 15.5832 12.0288 15.5832C14.028 15.5832 15.6492 13.98 15.6492 12.0024C15.6492 10.0248 14.0292 8.4228 12.0288 8.4228Z" fill="#9F9F9E"/>
</g>
<defs>
<clipPath id="clip0_1_244">
<rect width="24" height="24" fill="white"/>
</clipPath>
</defs>
</svg>
