<svg width="48" height="30" viewBox="0 0 48 30" fill="none" xmlns="http://www.w3.org/2000/svg">
<path d="M23.9815 14.5879C26.7171 14.5879 29.0698 11.4069 29.0698 7.26454C29.0698 3.17236 26.7042 0.140869 23.9815 0.140869C21.2587 0.140869 18.8923 3.23928 18.8923 7.298C18.8923 11.4069 21.2459 14.5879 23.9815 14.5879ZM9.33822 14.9682C11.7047 14.9682 13.7662 12.1854 13.7662 8.59068C13.7662 5.02829 11.6918 2.39386 9.33822 2.39386C6.97176 2.39386 4.88537 5.09409 4.89822 8.62303C4.89822 12.1854 6.95891 14.9693 9.33822 14.9693M38.6247 14.9693C41.0041 14.9693 43.0647 12.1865 43.0647 8.62414C43.0647 5.09521 40.9912 2.39497 38.6247 2.39497C36.2711 2.39497 34.1967 5.0294 34.1967 8.59068C34.1967 12.1865 36.2583 14.9693 38.6247 14.9693ZM2.23884 29.9294H11.9085C10.5853 27.4277 12.2006 22.3908 14.9362 19.6404C13.523 18.4146 11.7047 17.5034 9.32623 17.5034C3.58694 17.5034 0 23.0198 0 27.6095C0 29.1007 0.636366 29.9294 2.23884 29.9294ZM45.7241 29.9294C47.3394 29.9294 47.963 29.1007 47.963 27.6095C47.963 23.0198 44.3752 17.5034 38.6376 17.5034C36.2583 17.5034 34.4391 18.4146 33.0276 19.6404C35.7624 22.3908 37.3786 27.4277 36.0553 29.9294H45.7241ZM15.9785 29.9294H31.9707C33.9681 29.9294 34.6806 29.1832 34.6806 27.7255C34.6806 23.4515 30.5713 17.5536 23.9686 17.5536C17.3789 17.5536 13.2695 23.4515 13.2695 27.7255C13.2695 29.1832 13.9812 29.9294 15.9785 29.9294Z" fill="black"/>
</svg>
